<?xml version="1.0" encoding="UTF-8" standalone="no"?>
<svg
   clip-rule="evenodd"
   fill-rule="evenodd"
   stroke-linejoin="round"
   stroke-miterlimit="3"
   viewBox="0 0 34180.547 25500"
   version="1.1"
   id="svg1"
   sodipodi:docname="gadget.svg"
   xml:space="preserve"
   width="34180.547"
   height="25500"
   xmlns:inkscape="http://www.inkscape.org/namespaces/inkscape"
   xmlns:sodipodi="http://sodipodi.sourceforge.net/DTD/sodipodi-0.dtd"
   xmlns="http://www.w3.org/2000/svg"
   xmlns:svg="http://www.w3.org/2000/svg"><defs
     id="defs1" /><sodipodi:namedview
     id="namedview1"
     pagecolor="#ffffff"
     bordercolor="#000000"
     borderopacity="0.25"
     inkscape:showpageshadow="2"
     inkscape:pageopacity="0.0"
     inkscape:pagecheckerboard="0"
     inkscape:deskcolor="#d1d1d1" /><g
     id="g3"
     transform="translate(-40945.526,-56695.203)"><g
       transform="matrix(1.3404135,0,0,1.3404135,786.24756,592.42421)"
       id="b3161677-8815-477b-beae-9ac0d9636d20"
       style="image-rendering:auto"
       inkscape:export-filename="..\..\Desktop\konva\konva-project\public\gadget.svg"
       inkscape:export-xdpi="96"
       inkscape:export-ydpi="96">&#10;<path
   style="opacity:1;fill:#000000;fill-rule:nonzero;stroke:#000000;stroke-width:0.722032;stroke-linecap:butt;stroke-linejoin:miter;stroke-miterlimit:4;stroke-dasharray:none;stroke-dashoffset:0"
   vector-effect="non-scaling-stroke"
   d="m -755.02468,-175.16079 c -1.99456,-1.12801 -3.02212,-2.49889 -3.02212,-3.85377 0,-1.36064 1.03624,-2.73738 3.04716,-3.86796 4.04807,-2.27597 12.19939,-3.85995 21.59183,-3.85995 9.39244,0 17.54375,1.58398 21.59182,3.85995 2.01093,1.13058 3.04716,2.50732 3.04716,3.86796 0,1.35488 -1.02756,2.72576 -3.02212,3.85377 -0.70775,2.02693 -1.96732,3.72354 -3.59359,4.95224 -1.10657,2.64181 -3.0692,4.57265 -5.4521,5.43967 -0.27013,0.62779 -0.58007,1.19979 -0.92342,1.71058 3.46103,0.65392 6.24943,1.59454 8.00079,2.69227 1.54328,0.96739 2.31836,2.11834 2.31836,3.25478 0,1.23158 -0.92831,2.48652 -2.7487,3.51001 -3.60307,2.02576 -10.8581,3.43866 -19.2182,3.43866 -8.3601,0 -15.61513,-1.4129 -19.21821,-3.43866 -1.82039,-1.02349 -2.74869,-2.27843 -2.74869,-3.51001 0,-1.13644 0.77508,-2.28739 2.31836,-3.25478 1.75136,-1.09773 4.53975,-2.03835 8.00079,-2.69227 -0.34336,-0.51079 -0.65329,-1.08279 -0.92342,-1.71058 -2.3829,-0.86702 -4.34554,-2.79786 -5.4521,-5.43967 -1.62627,-1.2287 -2.88586,-2.92531 -3.5936,-4.95224 z m 41.27519,0.92685 c -4.42106,1.77576 -11.58073,2.94718 -19.65832,2.94718 -8.0776,0 -15.23726,-1.17142 -19.65832,-2.94718 1.62039,2.90719 4.71821,4.7064 8.26145,4.7064 h 22.79375 c 3.54322,0 6.64105,-1.79921 8.26144,-4.7064 z m -4.02803,5.3839 c -1.30008,0.52956 -2.73044,0.81572 -4.23341,0.81572 h -22.79375 c -1.50299,0 -2.93334,-0.28616 -4.23342,-0.81572 1.44951,1.93947 3.57963,3.09618 5.95854,3.09618 h 19.34349 c 2.37891,0 4.50904,-1.15671 5.95855,-3.09618 z m -4.86186,4.51931 c -0.3597,0.0464 -0.72571,0.0701 -1.09669,0.0701 h -19.34349 c -0.37098,0 -0.73697,-0.0236 -1.09668,-0.0701 0.97738,1.66632 2.32953,2.67509 3.85973,2.67509 h 13.81738 c 1.53023,0 2.88237,-1.00877 3.85975,-2.67509 z m -0.21716,2.58998 c -0.57717,0.55388 -1.21041,0.97155 -1.88104,1.23777 -0.49897,1.4674 -1.16432,2.58422 -1.90917,3.27004 -0.62456,0.57509 -1.31245,0.8683 -2.02659,0.8683 h -9.46895 c -0.71413,0 -1.40203,-0.29321 -2.02658,-0.8683 -0.74486,-0.68582 -1.41021,-1.80264 -1.90917,-3.27004 -0.67064,-0.26622 -1.30387,-0.68389 -1.88104,-1.23777 -3.65186,0.6182 -6.59926,1.53982 -8.39102,2.66294 -0.55004,0.34482 -0.98347,0.70298 -1.27455,1.08257 -0.22015,0.28702 -0.35353,0.57766 -0.35353,0.88399 0,0.3445 0.16669,0.66822 0.43793,0.98851 0.35871,0.42365 0.89059,0.82105 1.56422,1.1998 3.47968,1.95653 10.49441,3.26715 18.56822,3.26715 8.0738,0 15.08853,-1.31062 18.56821,-3.26715 0.67363,-0.37875 1.20552,-0.77615 1.56423,-1.1998 0.27123,-0.32029 0.43791,-0.64401 0.43791,-0.98851 0,-0.30633 -0.13337,-0.59697 -0.35352,-0.88399 -0.29108,-0.37959 -0.72451,-0.73775 -1.27454,-1.08257 -1.79176,-1.12312 -4.73916,-2.04474 -8.39102,-2.66294 z m -3.52039,1.57673 c -0.0407,0.001 -0.0814,0.002 -0.1222,0.002 h -13.81738 c -0.0408,0 -0.0815,-5.1e-4 -0.12219,-0.002 0.26244,0.59878 0.56011,1.10188 0.8889,1.49215 0.42644,0.5063 0.89499,0.81401 1.40751,0.81401 h 9.46895 c 0.51254,0 0.98108,-0.30771 1.40752,-0.81401 0.32878,-0.39027 0.62644,-0.89337 0.88889,-1.49215 z m -7.03088,-25.08524 c -9.10606,0 -17.01726,1.4817 -20.94184,3.68835 -0.76899,0.43239 -1.37539,0.88696 -1.78498,1.37055 -0.32201,0.38034 -0.51563,0.76666 -0.51563,1.1758 0,0.40904 0.19362,0.79545 0.51563,1.17569 0.40959,0.48359 1.01599,0.93827 1.78498,1.37066 3.92458,2.20655 11.83578,3.68824 20.94184,3.68824 9.10604,0 17.01726,-1.48169 20.94183,-3.68824 0.769,-0.43239 1.3754,-0.88707 1.78499,-1.37066 0.32199,-0.38024 0.51562,-0.76665 0.51562,-1.17569 0,-0.40914 -0.19363,-0.79546 -0.51562,-1.1758 -0.40959,-0.48359 -1.01599,-0.93816 -1.78499,-1.37055 -3.92457,-2.20665 -11.83579,-3.68835 -20.94183,-3.68835 z"
   stroke-linecap="round"
   id="path1-4" />&#10;</g></g></svg>
